<?xml version="1.0" encoding="UTF-8" standalone="no"?>
<svg
   xmlns:dc="http://purl.org/dc/elements/1.1/"
   xmlns:cc="http://creativecommons.org/ns#"
   xmlns:rdf="http://www.w3.org/1999/02/22-rdf-syntax-ns#"
   xmlns:svg="http://www.w3.org/2000/svg"
   xmlns="http://www.w3.org/2000/svg"
   viewBox="0 0 1066.6667 1066.6667"
   height="1066.6667"
   width="1066.6667"
   xml:space="preserve"
   id="svg2"
   version="1.1"><metadata
     id="metadata8"><rdf:RDF><cc:Work
         rdf:about=""><dc:format>image/svg+xml</dc:format><dc:type
           rdf:resource="http://purl.org/dc/dcmitype/StillImage" /></cc:Work></rdf:RDF></metadata><defs
     id="defs6"><clipPath
       id="clipPath18"
       clipPathUnits="userSpaceOnUse"><path
         id="path16"
         d="M 0,800 H 800 V 0 H 0 Z" /></clipPath></defs><g
     transform="matrix(1.3333333,0,0,-1.3333333,0,1066.6667)"
     id="g10"><g
       id="g12"><g
         clip-path="url(#clipPath18)"
         id="g14"><g
           transform="translate(723.0693,417.2285)"
           id="g20"><path
             id="path22"
             style="fill:#231f20;fill-opacity:1;fill-rule:nonzero;stroke:none"
             d="m 0,0 c -2.169,-1.138 -4.484,-1.68 -6.764,-1.68 -5.09,0 -10.026,2.725 -12.62,7.535 l -5.155,9.611 0.181,0.837 c 0.09,0.333 0.158,0.73 0.239,1.068 0.28,1.411 0.569,2.774 0.812,4.124 0.022,0.15 0.078,0.282 0.09,0.422 1.277,6.776 2.232,13.533 2.755,20.033 0.023,0.068 0.023,0.193 0.023,0.284 0.34,4.118 0.501,7.886 0.501,11.544 0,6.222 -0.501,11.608 -1.504,16.418 L 5.817,19.372 C 9.551,12.396 6.975,3.758 0,0 m -13.91,-111.787 c -2.134,-1.157 -4.461,-1.705 -6.746,-1.705 -2.238,0 -4.423,0.548 -6.437,1.554 l 0.277,0.741 c 0.058,0.218 0.154,0.423 0.233,0.658 0.509,1.314 1.007,2.617 1.466,3.908 l 0.741,1.953 c 1.043,2.785 1.577,5.757 1.585,8.742 0,7.053 -2.785,13.77 -7.903,18.864 -5.655,5.674 -14.427,9.343 -22.379,9.343 -0.219,0 -0.459,-0.015 -0.674,-0.036 l -1.01,1.84 c 1.415,2.774 2.842,5.56 4.192,8.349 0.096,0.229 0.216,0.466 0.319,0.682 0.871,1.814 1.7,3.63 2.553,5.451 0.135,0.295 0.306,0.615 0.443,0.964 2.022,4.451 3.967,8.916 5.752,13.228 0.566,1.388 1.08,2.75 1.605,4.088 l 31.831,-59.276 c 3.741,-6.946 1.124,-15.616 -5.848,-19.348 m -31.257,-79.412 c -2.129,-1.176 -4.459,-1.701 -6.74,-1.701 -5.109,0 -10.027,2.736 -12.603,7.544 l -1.647,3.026 c 1.647,1.41 3.264,2.941 4.891,4.69 1.56,1.663 3.119,3.497 4.614,5.438 0.256,0.302 0.487,0.616 0.694,0.933 0.533,0.707 1.075,1.455 1.613,2.227 0.168,0.217 0.355,0.474 0.52,0.729 0.503,0.709 1.061,1.542 1.607,2.357 0.142,0.217 0.303,0.481 0.425,0.705 0.558,0.845 1.102,1.695 1.625,2.567 0.157,0.298 0.367,0.567 0.522,0.875 0.853,1.412 1.692,2.894 2.552,4.463 l 7.77,-14.512 c 3.731,-6.939 1.123,-15.629 -5.843,-19.341 m -40.931,-56.268 c -2.131,-1.181 -4.458,-1.723 -6.733,-1.723 -5.111,0 -10.063,2.724 -12.629,7.536 l -28.151,52.511 c 3.968,1.941 7.472,4.371 10.511,7.017 8.207,-8.628 17.96,-10.979 24.351,-11.515 l 18.488,-34.473 c 3.735,-6.969 1.123,-15.647 -5.837,-19.353 m -50.94,-44.638 c -2.159,-1.169 -4.486,-1.711 -6.73,-1.711 -5.106,0 -10.05,2.76 -12.632,7.572 l -25.241,47.23 c 4.345,2.906 8.48,6.174 12.363,9.808 0.049,0.036 0.104,0.066 0.152,0.116 3.23,3.03 6.307,6.335 9.282,9.899 l 28.675,-53.562 c 3.714,-6.988 1.091,-15.662 -5.869,-19.352 m -56.272,-30.964 c -2.147,-1.158 -4.448,-1.7 -6.732,-1.7 -5.114,0 -10.028,2.717 -12.606,7.537 l -32.85,61.155 c 0.849,0 1.76,-0.048 2.588,-0.048 2.351,0 4.595,0.072 7.037,0.194 h 0.451 c 0.493,0.04 0.961,0.065 1.483,0.085 0.079,0 0.18,0.048 0.258,0.048 1.662,0.101 3.322,0.257 4.933,0.386 0.088,0.048 0.202,0.048 0.316,0.048 l 0.444,0.059 c 0.772,0.097 1.561,0.175 2.351,0.278 0.238,0.036 0.489,0.048 0.727,0.078 3.521,0.49 6.927,1.152 10.258,1.925 l 27.212,-50.701 c 3.717,-6.948 1.113,-15.614 -5.87,-19.344 M -256.989,-342 c -2.171,-1.158 -4.487,-1.699 -6.765,-1.699 -5.103,0 -10.039,2.712 -12.599,7.523 l -43.989,81.946 c 1.441,3.133 2.855,6.274 4.166,9.536 0.033,0.048 0.055,0.114 0.078,0.18 0.161,0.364 0.275,0.717 0.438,1.068 2.537,-0.728 5.061,-1.452 7.596,-2.175 0.094,-0.024 0.199,-0.048 0.314,-0.072 0.237,-0.069 0.513,-0.135 0.726,-0.206 1.749,-0.495 3.484,-0.952 5.224,-1.442 0.09,-0.017 0.21,-0.042 0.277,-0.078 l 0.314,-0.048 0.419,-0.133 c 1.953,-0.549 3.936,-1.025 5.881,-1.514 l 0.094,-0.016 c 0.192,-0.049 0.379,-0.097 0.578,-0.153 1.429,-0.343 2.822,-0.68 4.235,-0.988 l 38.823,-72.389 c 3.739,-6.941 1.15,-15.626 -5.81,-19.34 m -74.483,1.053 c -2.17,-1.157 -4.464,-1.703 -6.74,-1.703 -5.094,0 -10.026,2.749 -12.621,7.54 l -13.457,25.075 c 7.572,5.414 14.647,11.913 21.144,19.545 0.111,0.123 0.232,0.259 0.376,0.399 0.042,0.049 0.079,0.145 0.145,0.181 l 16.989,-31.682 c 3.736,-6.927 1.131,-15.629 -5.836,-19.355 m -187.857,74.188 c -2.102,-1.08 -4.345,-1.599 -6.521,-1.599 -5.2,0 -10.201,2.84 -12.762,7.764 l -97.447,189.617 c -3.598,7.042 -0.837,15.639 6.193,19.262 2.043,1.056 4.268,1.527 6.45,1.527 3.371,-20.5 15.567,-37.886 33.702,-48.348 l 76.549,-148.955 c 3.6,-7.036 0.853,-15.639 -6.164,-19.268 M -622.216,63.159 c 6.945,3.745 15.615,1.134 19.347,-5.841 l 16.335,-30.428 c -4.805,-2.943 -9.29,-6.246 -13.338,-10.013 -0.266,-0.241 -0.534,-0.482 -0.823,-0.748 -0.875,-0.867 -1.725,-1.719 -2.542,-2.592 -0.102,-0.116 -0.262,-0.266 -0.386,-0.374 -0.081,-0.084 -0.159,-0.169 -0.229,-0.266 -0.886,-0.928 -1.691,-1.839 -2.514,-2.816 -0.12,-0.138 -0.235,-0.246 -0.359,-0.415 -0.612,-0.743 -1.214,-1.515 -1.793,-2.273 l -19.544,36.402 c -3.74,6.965 -1.124,15.663 5.846,19.364 m 32.372,77.359 c 6.946,3.733 15.597,1.109 19.344,-5.836 l 37.042,-69.036 c 0.126,-4.042 0.383,-7.985 0.88,-11.638 0.036,-0.23 0.057,-0.41 0.091,-0.615 0.12,-0.862 0.268,-1.717 0.416,-2.569 0.045,-0.221 0.084,-0.427 0.141,-0.655 0.567,-3.064 1.312,-5.97 2.222,-8.754 h -0.615 -0.205 c -7.295,0 -14.512,-0.627 -21.394,-1.81 l -43.758,81.536 c -3.744,6.952 -1.118,15.627 5.836,19.377 m 43.27,57.004 c 6.957,3.743 15.627,1.115 19.355,-5.836 l 17.696,-32.954 c -6.787,-11.129 -11.567,-23.338 -14.684,-33.147 l -28.191,52.565 c -3.752,6.957 -1.113,15.627 5.824,19.372 m 50.998,42.661 c 6.939,3.738 15.621,1.137 19.374,-5.819 l 24.882,-46.387 c -3.81,1.242 -8.031,1.937 -12.666,1.937 -1.939,0 -3.856,-0.128 -5.699,-0.43 -1.518,-0.185 -2.757,-0.482 -3.348,-0.615 -0.058,-0.023 -0.091,-0.023 -0.103,-0.023 -0.557,-0.126 -1.067,-0.218 -1.634,-0.363 -0.105,-0.072 -0.229,-0.088 -0.394,-0.136 -1.366,-0.37 -2.753,-0.84 -4.2,-1.411 -0.425,-0.145 -0.811,-0.314 -1.215,-0.519 -0.654,-0.272 -1.254,-0.615 -1.881,-0.936 l -18.951,35.318 c -3.747,6.969 -1.137,15.663 5.835,19.384 m 101.16,-301.28 -0.094,-0.293 c -0.033,-0.073 -0.054,-0.133 -0.078,-0.181 -0.16,-0.411 -0.257,-0.736 -0.386,-1.025 -0.021,-0.084 -0.021,-0.133 -0.069,-0.201 -3.955,-11.109 -7.13,-22.963 -9.339,-34.863 l -33.289,62.025 c 0.362,-0.093 0.693,-0.169 1.055,-0.285 9.505,-2.508 21.593,-5.358 35.221,-6.824 l 8.158,-15.217 c -0.034,-0.09 -0.079,-0.182 -0.103,-0.295 -0.38,-0.904 -0.715,-1.868 -1.076,-2.841 m -19.735,-105.763 c -0.344,0 -0.673,-0.036 -1.014,-0.049 h -0.078 c -2.352,-0.144 -4.534,-0.313 -6.632,-0.501 -5.999,-0.609 -11.798,-1.632 -17.346,-3.008 l -45.065,83.976 c 7.448,6.282 14.285,13.79 20.384,22.507 l 55.143,-102.769 c -1.818,-0.048 -3.553,-0.067 -5.061,-0.133 z m -131.786,57.63 c 0.84,0 1.642,0.005 2.464,0.054 9.46,0.319 18.652,1.966 27.369,4.835 l 43.303,-80.715 v -0.023 c -0.066,-0.021 -0.13,-0.061 -0.163,-0.108 -8.335,-5.729 -15.455,-12.673 -21.174,-20.535 z m 106.334,382.837 c 6.966,3.731 15.627,1.09 19.335,-5.86 l 41.85,-78.263 c -10.072,-0.265 -19.498,-3.272 -27.775,-8.722 l -39.279,73.485 c -3.732,6.957 -1.116,15.634 5.869,19.36 m 69.067,8.923 c 6.942,3.726 15.636,1.126 19.365,-5.836 l 26.829,-50.011 c -8.015,-2.134 -15.102,-6.994 -20.242,-14.059 -0.914,-1.296 -1.73,-2.634 -2.487,-4.04 l -29.304,54.586 c -3.741,6.933 -1.112,15.634 5.839,19.36 m 66.509,8.609 c 6.962,3.718 15.626,1.114 19.373,-5.836 l 8.971,-16.719 c -5.031,-4.293 -9.164,-9.688 -12.036,-16.054 -1.773,-3.589 -3.476,-7.7 -5.179,-12.367 l -16.96,31.605 c -3.741,6.944 -1.123,15.621 5.831,19.371 m 83.672,-18.214 c 6.957,3.721 15.612,1.085 19.35,-5.861 l 42.72,-79.581 c -1.819,0.542 -3.704,1 -5.606,1.302 -0.118,0.012 -0.245,0.061 -0.359,0.061 -2.515,0.385 -4.876,0.591 -7.262,0.591 -6.432,0 -12.642,-1.182 -18.504,-3.292 l -22.107,41.196 c 0.259,1.544 0.486,2.954 0.679,4.273 0.011,0.176 0.036,0.363 0.06,0.519 v 0.049 c 0.031,0.156 0.044,0.3 0.054,0.453 0.114,0.965 0.211,1.886 0.287,2.802 0.044,0.434 0.09,0.875 0.099,1.302 0.093,1.386 0.148,2.672 0.148,3.926 0.012,12.612 -4.746,23.096 -12.746,29.848 0.947,0.899 1.959,1.748 3.187,2.412 m 112.794,-72.504 c 6.955,3.732 15.613,1.145 19.332,-5.829 L -33.203,92.117 c -6.336,5.813 -14.581,9.092 -23.738,9.116 -4.3,0 -8.423,-0.808 -12.369,-2.327 l -44.086,82.174 c -3.744,6.945 -1.137,15.627 5.835,19.341 m -207.485,124.147 c -193.299,0 -350.023,-156.715 -350.023,-349.985 0,-193.315 156.724,-350.015 350.023,-350.015 193.279,0 349.977,156.7 349.977,350.015 0,193.27 -156.698,349.985 -349.977,349.985" /></g><g
           transform="translate(535.9512,438.8926)"
           id="g24"><path
             id="path26"
             style="fill:#ffffff;fill-opacity:1;fill-rule:nonzero;stroke:none"
             d="m 0,0 c -0.569,0.072 -1.147,0.113 -1.771,0.113 -8.869,0 -14.14,-8.397 -14.14,-16.621 0,-4.589 1.96,-8.247 5.303,-9.995 l 0.331,-0.205 c 0.437,-0.213 0.941,-0.41 1.428,-0.567 l 0.342,-0.104 c 0.393,-0.1 0.796,-0.192 1.248,-0.234 l 0.383,-0.072 c 0.504,-0.085 1.122,-0.132 1.686,-0.085 h 0.17 c 0.484,0 0.941,0 1.272,0.065 0.159,0 0.297,0.02 0.568,0.044 0.307,0.065 0.624,0.133 0.907,0.182 0.216,0.036 0.385,0.076 0.545,0.136 0.32,0.068 0.605,0.181 0.803,0.249 l 0.59,0.229 c 0.253,0.089 0.522,0.205 0.767,0.338 l 1.35,0.752 c 0.141,0.091 0.269,0.18 0.32,0.205 0.213,0.157 0.468,0.338 0.689,0.513 0.313,0.235 0.637,0.519 1.02,0.893 l 1.956,2.248 c 0.161,0.181 0.262,0.38 0.524,0.754 l 0.393,0.7 c 0.116,0.186 0.218,0.386 0.379,0.691 0.714,1.4 1.226,2.93 1.578,4.578 0.215,1.138 0.318,2.248 0.318,3.339 0,6.336 -3.246,10.833 -8.573,11.769 z" /></g><g
           transform="translate(583.1777,399.4199)"
           id="g28"><path
             id="path30"
             style="fill:#ffffff;fill-opacity:1;fill-rule:nonzero;stroke:none"
             d="m 0,0 c 2.508,11.969 5.112,23.122 7.687,33.118 4.192,16.223 8.315,29.168 11.836,37.427 l 0.231,0.5 c 0.268,0.609 0.51,1.188 0.676,1.543 l 0.205,0.441 c 0.347,0.668 0.66,1.326 0.949,1.898 l 0.185,0.321 c 0.289,0.578 0.582,1.109 0.882,1.567 l 0.151,0.258 c 0.306,0.49 0.604,0.941 0.977,1.467 0.275,0.386 0.535,0.723 0.99,1.198 0.192,0.23 0.396,0.41 0.647,0.599 0.159,0.108 0.42,0.301 0.566,0.361 l 0.172,0.041 c 0.097,0.012 0.169,0.048 0.194,0.048 1.918,-0.036 2.064,-3.75 2.064,-8.247 0,-1.682 -0.057,-3.381 -0.123,-5.082 L 28.186,66.181 C 28.129,64.697 27.999,63.183 27.834,61.526 27.8,61.345 27.8,61.188 27.756,60.959 27.409,57.395 26.863,53.568 26.095,49.323 23.964,37.362 20.288,24.074 15.252,9.755 13.717,5.409 12.055,0.936 10.097,-4.063 8.335,-8.47 6.543,-12.786 4.781,-16.917 0.761,-26.243 -3.664,-35.696 -8.391,-45.113 -6.003,-30.354 -3.109,-14.74 0,0 m 55.008,-10.979 c 0.51,2.557 1.023,5.125 1.533,7.663 l 0.75,3.569 c 0.42,1.973 0.835,3.975 1.26,5.916 l 0.091,0.306 c 0.578,2.768 1.181,5.486 1.771,8.013 l 0.108,0.435 c 0.615,2.657 1.216,5.33 1.88,7.89 3.771,15.821 7.641,29.38 11.099,39.28 0.495,1.423 1.027,2.749 1.507,4.02 l 0.021,0.091 c 0.033,0.025 0.033,0.049 0.033,0.073 l 0.104,0.314 c 0.175,0.463 0.375,0.921 0.536,1.362 l 0.206,0.458 0.71,1.748 c 0.525,1.206 0.982,2.255 1.411,3.136 l 0.162,0.312 c 0.153,0.343 0.326,0.664 0.482,1.002 l 0.211,0.41 1.39,2.428 c 0.193,0.273 0.383,0.567 0.727,1.069 l 0.604,0.771 c 0.165,0.169 0.331,0.361 0.454,0.499 l 0.135,0.116 c 0.163,0.158 0.34,0.319 0.559,0.452 0.09,0.091 0.186,0.156 0.256,0.192 l 0.38,0.181 c 0.108,0 0.14,0.012 0.175,0.012 1.935,0 2.094,-3.714 2.094,-8.217 0,-1.349 -0.032,-2.7 -0.11,-4.263 L 85.452,66.137 C 85.42,65.546 85.39,64.955 85.322,64.34 85.266,63.443 85.159,62.551 85.057,61.479 L 84.95,60.163 C 84.84,59.055 84.71,57.962 84.533,56.884 84.499,56.6 84.467,56.341 84.419,55.896 L 83.875,52.181 C 83.793,51.965 83.761,51.729 83.761,51.603 83.528,50.191 83.297,48.762 83.08,47.616 L 82.984,47.242 C 82.416,44.308 81.769,41.358 81.06,38.387 78.458,27.415 74.693,15.356 69.9,2.604 L 69.311,0.977 c -1.657,-4.358 -3.45,-8.82 -5.292,-13.216 l -0.153,-0.378 c -1.815,-4.336 -3.611,-8.436 -5.405,-12.336 -3.453,-7.741 -6.798,-14.585 -9.607,-20.208 1.782,11.093 3.829,22.564 6.154,34.182 M 42.381,-97.271 c 0.102,1.804 0.251,3.667 0.414,5.566 l 0.12,1.507 c 0.114,1.556 0.251,3.148 0.438,4.78 l 0.842,8.437 c 0.195,2.079 0.429,4.211 0.686,6.33 0.69,1.042 1.423,2.109 2.103,3.199 7.356,11.294 14.705,24.412 21.18,37.978 l 0.199,0.403 c 0.899,1.84 1.762,3.7 2.598,5.516 0.081,0.162 0.157,0.343 0.287,0.617 1.86,4.111 3.666,8.288 5.418,12.479 5.788,14.071 10.462,27.721 13.75,40.49 l 0.08,0.362 c 0.386,1.452 0.743,2.881 0.964,4.04 0.124,0.277 0.172,0.542 0.172,0.602 l 1.145,5.101 c 0.27,1.222 0.535,2.452 0.769,3.786 l 0.02,0.192 c 1.159,6.01 1.993,11.914 2.442,17.58 0.277,3.522 0.437,6.85 0.437,9.893 0,7.29 -0.816,12.687 -2.544,16.515 -2.203,4.919 -5.892,7.415 -10.963,7.415 -6.23,0 -12.621,-5.623 -19.015,-16.696 -4.79,-8.348 -9.435,-19.597 -13.797,-33.283 l -0.188,-0.375 v -0.12 C 48.479,40.485 47.061,35.674 45.712,30.803 L 45.604,30.446 C 44.207,25.394 42.869,20.076 41.416,13.97 38.804,2.841 36.386,-8.947 34.194,-21.167 32.935,-28.22 31.855,-34.522 30.93,-40.551 l -0.096,-0.522 c -2.178,-14.121 -3.828,-27.21 -4.884,-38.936 -4.087,-10.406 -7.633,-18.853 -10.847,-25.756 -0.499,-1.073 -0.965,-2.085 -1.441,-3.061 l -0.228,-0.435 c -0.373,-0.819 -0.779,-1.628 -1.122,-2.387 l -0.558,-1.044 c -0.977,-1.971 -1.952,-3.839 -2.873,-5.492 -0.114,-0.211 -0.205,-0.38 -0.313,-0.53 l -1.213,-2.135 c -0.097,-0.132 -0.168,-0.313 -0.175,-0.337 l -1.353,-2.225 c -0.127,-0.163 -0.223,-0.295 -0.266,-0.388 l -0.336,-0.521 c -0.245,-0.387 -0.511,-0.784 -0.823,-1.239 l -0.312,-0.462 c -0.408,-0.59 -0.809,-1.182 -1.236,-1.732 -3.977,-5.346 -7.542,-8.082 -10.655,-8.082 -4.922,0 -7.608,8.596 -7.608,24.163 0.034,7.222 0.533,16.265 1.647,27.605 l 0.59,6.301 c 0.078,0.229 0.09,0.483 0.09,0.639 0.217,2.134 0.479,4.317 0.75,6.528 l 3.941,6.054 c 0.056,0.09 0.126,0.188 0.204,0.344 9.279,14.65 18.111,31.567 25.565,48.919 l 0.245,0.566 c 0.82,1.905 1.638,3.817 2.422,5.769 l 0.267,0.658 c 6.282,15.487 11.1,30.398 14.346,44.329 l 0.16,0.82 c 0.223,0.977 0.442,1.901 0.649,2.998 l 0.219,0.861 c 1.299,6.41 2.254,12.475 2.846,18.094 0.152,1.463 0.272,2.894 0.386,4.437 0,0.266 0.012,0.507 0.044,0.809 0.059,1.132 0.114,2.271 0.161,3.351 0.084,1.428 0.084,2.839 0.084,4.244 0,0.977 0,1.953 -0.051,2.911 l -0.033,0.338 c -0.386,10.287 -2.768,16.401 -7.49,19.151 -0.382,0.221 -0.787,0.426 -1.44,0.691 -0.377,0.145 -0.759,0.285 -1.177,0.374 l -0.534,0.133 c -0.309,0.072 -0.648,0.14 -1.042,0.181 -1.117,0.139 -2.359,0.18 -3.516,-0.041 L 23.496,95.3 23.135,95.211 C 22.782,95.119 22.417,95.047 22.01,94.89 L 21.428,94.645 C 21.03,94.48 20.623,94.323 20.288,94.154 20.065,94.029 19.838,93.913 19.634,93.8 19.236,93.563 18.829,93.322 18.443,93.069 L 17.864,92.643 C 17.467,92.346 17.069,92.027 16.682,91.719 16.512,91.574 16.331,91.417 16.156,91.256 15.707,90.87 15.275,90.44 14.664,89.825 l -0.258,-0.24 c -0.481,-0.487 -0.972,-1.03 -1.448,-1.621 L 12.701,87.655 C 6.995,80.854 1.369,69.749 -3.944,54.895 l -0.179,-0.43 C -5.811,49.738 -7.3,45.188 -8.72,40.546 L -8.79,40.328 C -9.146,39.11 -9.528,37.886 -9.771,36.896 l -0.175,-0.451 c -4.667,-16 -8.927,-34.714 -12.751,-55.754 -0.12,-0.616 -0.231,-1.194 -0.341,-1.797 -0.525,-2.93 -1.033,-5.824 -1.529,-8.754 l -0.313,-1.881 c -0.407,-2.359 -0.772,-4.697 -1.158,-7.025 l -0.546,-3.405 c -0.263,-1.87 -0.554,-3.714 -0.84,-5.776 l -0.374,-2.569 c -0.303,-2.012 -0.579,-4.022 -0.845,-6 l -0.023,-0.331 c -1.086,-8.126 -1.993,-15.939 -2.629,-23.234 -2.664,-6.933 -5.038,-12.806 -7.235,-17.985 -1.009,-2.387 -1.981,-4.678 -2.906,-6.733 -0.07,-0.093 -0.138,-0.241 -0.234,-0.446 l -1.423,-3.154 c -0.971,-2.068 -1.908,-4.021 -2.943,-6.108 l -1.214,-2.362 -0.161,-0.333 c -0.906,-1.693 -1.802,-3.283 -2.666,-4.792 -5.243,-8.924 -9.744,-13.492 -13.428,-13.492 -2.466,0 -3.936,4.123 -3.936,10.996 0,9.321 1.318,21.656 4.132,38.73 0.456,2.665 0.917,5.365 1.412,8.103 l 0.084,0.579 c 0.527,2.725 1.002,5.515 1.583,8.428 1.103,5.969 2.351,12.111 3.624,18.436 2.01,9.856 4.13,20.1 6.36,30.566 l 2.508,12.087 -19.414,0.043 -0.242,-1.265 c -0.989,-4.776 -2.11,-9.948 -3.276,-15.358 l -3.476,-16.15 c -0.089,-0.453 -0.166,-0.887 -0.28,-1.362 -0.534,-2.544 -1.08,-5.088 -1.583,-7.609 l -0.835,-3.95 c -0.335,-1.748 -0.702,-3.519 -0.989,-5.04 l -0.091,-0.366 c -1.722,-8.742 -3.097,-16.507 -4.245,-23.802 -2.283,-5.747 -4.469,-11.057 -6.539,-15.784 -0.488,-1.157 -0.98,-2.291 -1.438,-3.34 l -0.122,-0.26 c -1.025,-2.284 -2.005,-4.462 -3.086,-6.697 l -1.284,-2.673 c -0.078,-0.168 -0.148,-0.305 -0.198,-0.426 -0.915,-1.864 -1.84,-3.636 -2.799,-5.451 l -0.152,-0.276 c -0.338,-0.663 -0.671,-1.315 -1.027,-1.929 l -1.536,-2.66 c -6.439,-10.918 -10.463,-13.228 -12.719,-13.228 -3.77,0 -4.55,3.817 -4.55,7.005 0,7.001 2.971,16.117 6.145,25.756 0.971,2.943 1.985,6 2.892,9.039 0.19,0.524 0.365,1.049 0.521,1.543 l 1.752,6.25 c 0.163,0.737 0.373,1.454 0.534,2.155 0.158,0.638 0.308,1.27 0.439,1.885 0.185,0.783 0.359,1.556 0.523,2.363 l 1.002,5.993 c 0.138,0.959 0.235,1.832 0.317,2.798 l 0.135,1.406 c 0.082,1.398 0.136,2.772 0.136,4.147 0,1.121 -0.032,2.211 -0.115,3.305 l -0.112,1.108 c -0.044,0.711 -0.126,1.387 -0.255,2.001 -1.89,13.173 -9.203,23.007 -15.675,31.665 -0.892,1.198 -1.752,2.356 -2.581,3.46 l -0.153,0.242 c -0.425,0.559 -0.857,1.173 -1.3,1.856 -0.11,0.114 -0.214,0.217 -0.305,0.41 -0.363,0.499 -0.722,1.036 -1.034,1.532 l 1.613,5.417 0.193,0.866 c 2.663,13.057 5.104,26.104 5.414,42.399 l 0.012,1.201 -17.1,4.775 -0.393,-1.532 c -2.038,-7.603 -3.529,-14.934 -4.446,-21.74 l -0.042,-0.302 c -0.235,-1.502 -0.386,-2.977 -0.546,-4.508 -0.013,-0.169 -0.013,-0.327 -0.068,-0.555 -0.103,-1.334 -0.2,-2.636 -0.315,-4.023 l -0.026,-0.318 c 0,-0.182 -0.033,-0.35 -0.033,-0.514 -0.05,-1.555 -0.092,-3.075 -0.092,-4.594 0,-8.204 0.941,-14.245 2.962,-18.864 -0.293,-1.695 -0.634,-3.436 -0.993,-5.144 -0.334,-1.704 -0.708,-3.429 -1.073,-5.177 -3.201,-15.308 -7.228,-29.982 -11.572,-42.515 l -0.091,-0.49 c 0,-0.306 0.07,-0.571 0.16,-0.922 l 0.129,-0.313 c 0.071,-0.163 0.167,-0.301 0.257,-0.422 l 0.426,-0.543 c 0.107,-0.115 0.198,-0.192 0.391,-0.338 0.069,-0.066 0.144,-0.108 0.144,-0.108 h -0.036 l 0.869,-0.518 c 0.17,-0.12 0.295,-0.188 0.488,-0.264 l 0.82,-0.333 c 1.576,-0.609 3.11,-0.849 3.171,-0.861 l 1.284,-0.206 0.477,1.206 c 4.202,11.564 8.661,26.106 12.422,40.489 0.383,-0.826 0.781,-1.651 1.172,-2.483 3.708,-7.813 7.523,-15.924 7.523,-27.069 0,-0.949 -0.035,-1.865 -0.125,-2.81 -0.07,-0.84 -0.135,-1.677 -0.269,-2.544 -0.97,-7.705 -3.685,-15.736 -6.529,-24.221 -2.036,-6.028 -4.145,-12.231 -5.616,-18.416 l -0.612,-2.906 c -0.211,-0.966 -0.385,-1.912 -0.5,-2.761 -0.066,-0.325 -0.124,-0.707 -0.192,-1.23 -0.163,-1.086 -0.273,-2.177 -0.387,-3.449 l -0.045,-0.434 c -0.09,-1.225 -0.148,-2.447 -0.148,-3.678 0,-6.788 1.388,-12.092 4.145,-15.734 3.054,-4.016 7.62,-6.023 13.651,-6.023 0.803,0 1.615,0.059 2.466,0.186 0.276,0.006 0.521,0.042 0.725,0.084 7.852,1.254 14.624,7.272 21.458,18.902 l 0.162,0.294 c 0.759,1.315 1.562,2.727 2.306,4.178 l 2.393,4.769 c 0.396,0.848 0.821,1.702 1.226,2.61 l 0.243,0.563 c 0.327,0.685 0.643,1.39 1.01,2.174 l 0.738,1.72 c -0.024,-0.755 -0.024,-1.434 -0.024,-2.105 -0.012,-21.541 6.092,-33.394 17.17,-33.394 0.641,0 1.216,0.019 1.545,0.061 h 0.18 0.201 c 0.555,0.072 1.122,0.144 1.628,0.253 8.257,1.476 15.473,8.288 22.678,21.371 l 0.295,0.591 c 0.305,0.566 0.592,1.104 0.887,1.684 l 0.494,0.908 c 0.9,1.781 1.815,3.6 2.797,5.723 l 0.12,0.289 c 0.425,0.893 0.845,1.81 1.107,2.496 l 0.263,0.472 c 0.919,2.121 1.87,4.279 2.739,6.426 l 0.143,0.305 c 0.261,0.659 0.541,1.299 0.83,1.979 0.022,-1.405 0.066,-2.767 0.125,-4.076 0.143,-2.791 0.282,-5.395 0.512,-7.71 l 0.021,-0.421 c 0.103,-1.227 0.221,-2.424 0.398,-3.679 0.347,-2.7 0.682,-4.823 1.041,-6.691 l 0.104,-0.4 c 0.185,-0.963 0.416,-1.916 0.637,-2.82 0.477,-1.925 1.069,-3.751 1.785,-5.591 1.029,-2.568 2.235,-4.701 3.71,-6.49 1.469,-1.823 3.187,-3.185 5.237,-4.136 1.308,-0.567 2.725,-0.929 4.234,-1.109 0.557,-0.049 1.113,-0.097 1.708,-0.097 8.946,0 16.87,6.052 24.902,19.008 l 0.686,1.139 c 0.277,0.452 0.562,0.917 0.857,1.416 l 0.192,0.333 c 0.977,1.676 1.985,3.472 2.966,5.415 l 1.509,2.916 0.285,0.544 c 0.387,0.819 0.775,1.664 1.18,2.46 l 0.272,0.579 c 1.566,3.28 3.157,6.825 4.804,10.707 0.295,-13.481 1.501,-23.164 3.758,-30.189 3.072,-9.536 8.411,-14.352 15.783,-14.352 h 0.059 c 6.097,0 11.754,2.837 17.207,8.644 1.109,1.218 2.267,2.58 3.24,3.895 l 0.266,0.314 c 0.479,0.663 0.978,1.318 1.414,1.977 0.12,0.114 0.222,0.295 0.313,0.435 0.451,0.662 0.912,1.339 1.458,2.169 l 0.199,0.283 c 0.501,0.771 0.995,1.568 1.374,2.291 l 0.233,0.284 c 1.651,2.787 3.333,5.861 4.852,8.905 l 0.185,0.308 c 4.121,8.223 8.695,18.761 13.944,32.327 l 0.194,0.458 c 0.633,1.669 1.305,3.369 1.973,5.185 l 2.374,6.341 0.12,0.568 c 0,2.809 -4.769,4.605 -6.794,4.605 h -1.071 l -0.816,-2.133 c -0.741,-1.93 -1.477,-3.782 -2.213,-5.644 -5.318,-13.524 -9.914,-24.062 -14.06,-32.218 l -3.489,-6.471 c -0.526,-0.933 -1.06,-1.812 -1.587,-2.681 l -0.271,-0.384 c -0.482,-0.845 -1.007,-1.636 -1.489,-2.384 -0.534,-0.771 -1.044,-1.488 -1.543,-2.176 l -0.229,-0.324 c -0.512,-0.671 -0.977,-1.254 -1.479,-1.859 -0.469,-0.589 -0.959,-1.128 -1.428,-1.627 l -0.211,-0.249 c -0.488,-0.462 -0.901,-0.921 -1.403,-1.33 -2.19,-1.93 -4.245,-2.925 -6.097,-2.925 -0.839,0 -3.361,0 -5.291,5.18 -1.509,4.128 -2.284,10.502 -2.284,18.959 0,4.132 0.159,8.859 0.5,14.036 z" /></g><g
           transform="translate(390.9375,303.6934)"
           id="g32"><path
             id="path34"
             style="fill:#ffffff;fill-opacity:1;fill-rule:nonzero;stroke:none"
             d="m 0,0 c -0.853,-2.272 -1.739,-4.498 -2.68,-6.656 -0.476,-1.067 -0.937,-2.111 -1.453,-3.292 l -1.375,-2.931 -0.159,-0.305 c -0.413,-0.877 -0.838,-1.774 -1.293,-2.604 l -0.244,-0.508 c -0.404,-0.808 -0.835,-1.579 -1.393,-2.623 l -0.169,-0.343 c -0.377,-0.723 -0.79,-1.43 -1.239,-2.189 -0.108,-0.205 -0.223,-0.399 -0.271,-0.535 l -1.205,-1.996 c -5.728,-9.411 -11.184,-15.055 -14.663,-15.055 -4.823,0.017 -7.579,7.344 -7.579,20.184 0,10.87 1.906,24.829 5.369,39.382 0.248,1.114 0.528,2.259 0.826,3.393 l 0.353,1.309 c 0.241,1.012 0.506,2.001 0.783,3.043 2.192,7.881 4.601,15.141 7.236,21.592 5.431,13.335 11.328,21.981 16.476,24.248 0.432,0.173 0.919,0.337 1.345,0.446 l 0.166,0.06 c 0.386,0.054 0.772,0.109 1.094,0.109 2.2,0 4.015,-0.735 5.558,-2.315 3.522,-3.509 5.442,-10.841 5.442,-20.62 0,-1.651 -0.07,-3.286 -0.16,-4.919 L 10.711,45.682 C 10.617,44.053 10.454,42.365 10.276,40.727 8.914,27.957 5.351,13.897 0,0 m -15.461,-100.82 -1.628,-5.451 c -0.199,-0.585 -0.389,-1.177 -0.533,-1.701 l -0.455,-1.362 c -0.277,-0.795 -0.546,-1.634 -0.832,-2.448 -0.152,-0.457 -0.315,-0.959 -0.486,-1.447 -0.557,-1.647 -1.148,-3.23 -1.74,-4.87 -4.352,-11.583 -9.365,-21.643 -14.96,-29.948 -1.028,-1.548 -2.094,-3.099 -3.228,-4.549 l -0.286,-0.387 c -0.965,-1.23 -1.923,-2.436 -2.885,-3.57 l -0.488,-0.566 c -1.147,-1.338 -2.349,-2.624 -3.552,-3.834 -0.127,-0.141 -0.28,-0.301 -0.353,-0.385 -1.203,-1.183 -2.441,-2.34 -3.669,-3.437 -6.631,-5.741 -14.035,-9.966 -22.02,-12.535 -1.498,-0.475 -3.041,-0.905 -4.862,-1.338 -3.069,-0.693 -6.3,-1.224 -9.695,-1.501 l -0.705,-0.044 c -1.658,-0.113 -3.309,-0.193 -5.01,-0.193 l -0.404,-0.024 c -13.095,0.024 -24.212,4.191 -32.131,12.113 -2.685,2.652 -4.98,5.776 -6.854,9.248 -0.613,1.121 -1.147,2.237 -1.659,3.438 -0.498,1.185 -0.925,2.363 -1.293,3.592 l -0.09,0.236 c -1.091,3.543 -1.751,7.257 -1.936,11.088 -0.023,0.746 -0.042,1.482 -0.042,2.211 0,11.752 4.407,23.158 12.441,32.082 0.47,0.497 0.937,0.986 1.459,1.518 l 0.229,0.253 c 0.555,0.543 1.088,1.077 1.833,1.772 0.552,0.463 1.118,0.953 1.562,1.364 0.111,0.064 0.219,0.144 0.43,0.337 0.546,0.433 1.074,0.843 1.631,1.27 l 0.471,0.358 c 0.533,0.396 1.078,0.759 1.624,1.145 l 0.634,0.409 c 0.523,0.388 1.046,0.701 1.558,1.001 l 0.883,0.542 c 0.491,0.291 0.964,0.592 1.443,0.821 l 0.965,0.496 c 0.341,0.228 0.733,0.397 1.104,0.59 l 0.43,0.228 c 7.223,3.51 15.522,5.696 24.686,6.499 1.251,0.097 2.544,0.193 3.85,0.241 l 0.174,0.048 c 1.23,0.027 2.484,0.05 4.1,0.074 2.421,-0.024 4.771,-0.074 7.145,-0.194 2.221,-0.085 4.446,-0.241 6.637,-0.397 9.537,-0.735 19.322,-2.207 29.906,-4.473 3.129,-0.685 6.261,-1.412 9.457,-2.195 l 0.404,-0.092 c 2.64,-0.645 5.269,-1.339 7.877,-2.031 -0.359,-1.338 -0.766,-2.685 -1.137,-4.002 m 162.676,30.506 c -2.405,-4.964 -5.166,-9.473 -8.164,-13.41 -3.253,-4.328 -6.948,-8.095 -11.072,-11.256 -1.453,-1.125 -2.868,-2.09 -4.304,-2.996 -6.916,-4.244 -14.922,-7.004 -23.822,-8.146 -1.614,-0.192 -3.305,-0.349 -4.999,-0.449 -3.814,-0.261 -7.95,-0.219 -11.867,0 l -0.716,0.036 c -2.083,0.133 -4.167,0.264 -6.228,0.449 -9.27,0.889 -18.916,2.661 -30.321,5.542 -1.955,0.512 -3.981,1.025 -5.84,1.507 -0.148,0.048 -0.309,0.11 -0.6,0.162 -1.366,0.397 -2.756,0.785 -4.169,1.146 l -7.467,2.093 c -0.38,0.132 -0.778,0.259 -1.103,0.325 l -5.489,1.593 c -5.315,1.531 -10.711,3.086 -16.261,4.599 1.272,5.59 2.578,13.584 4.179,23.435 l 0.159,0.957 c 0.163,1.068 0.362,2.178 0.567,3.335 l 0.488,3.134 c 0.045,0.255 0.09,0.548 0.136,0.797 l 0.624,3.654 c 0.12,0.728 0.25,1.483 0.386,2.255 l 0.217,1.41 c 0.13,0.609 0.241,1.219 0.341,1.832 l 0.069,0.5 c 0.111,0.55 0.193,1.092 0.301,1.635 l 2.843,15.88 c 1.112,6.198 2.318,12.793 3.554,19.644 1.604,8.789 3.261,17.977 4.935,27.322 l 1.771,10.093 c 4.481,25.598 7.5,44.593 9.533,59.721 l 0.217,1.761 -17.818,0.036 -1.589,-9.521 c -3.916,9.195 -10.789,11.346 -16.36,11.346 -0.856,0 -1.664,-0.065 -2.547,-0.192 -0.238,-0.042 -0.483,-0.065 -0.718,-0.114 -0.579,-0.092 -1.202,-0.253 -2.05,-0.458 -0.183,-0.043 -0.367,-0.084 -0.482,-0.133 -0.828,-0.241 -1.621,-0.501 -2.384,-0.868 -7.686,-3.268 -15,-11.01 -21.779,-22.97 l -0.013,-0.013 c -0.02,-0.044 -0.058,-0.095 -0.09,-0.143 l -0.063,-0.072 c -1.619,-2.908 -3.151,-5.934 -4.558,-8.956 l -1.034,-2.295 c -0.193,-0.482 -0.38,-0.929 -0.6,-1.407 L -38.03,49.95 c -0.193,-0.471 -0.374,-0.941 -0.552,-1.37 l -2.116,-5.563 C -45.491,29.681 -48.976,15.079 -50.793,0.803 -51.031,-0.802 -51.2,-2.381 -51.36,-3.996 l -0.057,-0.446 c -0.109,-1.442 -0.263,-2.834 -0.377,-4.246 l -0.033,-0.807 c -0.078,-1.302 -0.169,-2.587 -0.233,-3.859 l -0.023,-0.927 c -0.067,-1.569 -0.079,-3.107 -0.091,-4.572 0,-24.32 7.045,-37.699 19.89,-37.699 0.59,0 1.169,0.025 1.739,0.044 l -0.148,1.591 0.588,-1.494 c 0.428,0.028 0.853,0.096 1.284,0.181 l 0.392,0.063 c 0.489,0.093 0.937,0.201 1.631,0.388 0.476,0.138 0.944,0.272 1.371,0.466 h 0.353 l 0.238,0.204 c 7.12,2.813 13.605,9.663 19.817,20.907 1.532,2.701 3.053,5.745 4.552,9.08 l -5.2,-32.086 c -0.949,-6.349 -2.306,-12.648 -3.62,-18.725 -0.651,-3.004 -1.273,-5.989 -1.863,-9.008 -6.129,1.476 -12.221,2.791 -18.225,3.908 -12.324,2.271 -23.899,3.61 -35.478,4.111 l -2.963,0.109 c -2.429,0.096 -4.838,0.161 -7.319,0.161 -2.026,0 -4.015,-0.089 -6.002,-0.161 l -0.715,-0.044 c -1.85,-0.101 -3.701,-0.246 -5.506,-0.41 -11.311,-1.145 -21.587,-3.913 -30.697,-8.289 -0.244,-0.132 -0.488,-0.249 -0.702,-0.337 -1.399,-0.682 -2.806,-1.455 -4.265,-2.275 -1.448,-0.849 -2.882,-1.724 -4.242,-2.681 l -0.262,-0.18 c -10.105,-6.947 -17.816,-16.267 -22.278,-26.969 l -0.056,-0.193 c -0.338,-0.809 -0.672,-1.633 -0.962,-2.452 l -0.097,-0.249 c -0.226,-0.728 -0.482,-1.476 -0.702,-2.211 l -0.103,-0.218 c -0.255,-0.911 -0.501,-1.76 -0.753,-2.839 -0.223,-0.846 -0.404,-1.634 -0.594,-2.545 l -0.22,-1.157 c -0.078,-0.512 -0.169,-1.002 -0.238,-1.501 l -0.091,-0.502 -0.063,-0.548 c -0.066,-0.586 -0.163,-1.157 -0.212,-1.699 -0.044,-0.35 -0.065,-0.676 -0.089,-1.043 l -0.058,-0.862 c -0.02,-0.321 -0.032,-0.591 -0.032,-0.88 -0.079,-0.929 -0.124,-1.846 -0.124,-2.797 0.033,-0.929 0.065,-1.81 0.091,-2.824 l 0.065,-0.875 c 0.036,-0.643 0.082,-1.326 0.172,-2.005 l 0.121,-0.942 c 0.066,-0.65 0.162,-1.284 0.265,-1.876 l 0.172,-0.975 c 0.118,-0.728 0.284,-1.453 0.452,-2.322 l 0.127,-0.405 c 0.419,-1.872 0.976,-3.736 1.691,-5.678 0.021,-0.113 0.069,-0.247 0.114,-0.385 0.292,-0.748 0.579,-1.501 0.874,-2.16 0.091,-0.222 0.194,-0.426 0.283,-0.631 0.317,-0.735 0.669,-1.479 1.035,-2.207 l 0.193,-0.398 c 1.39,-2.732 3.038,-5.325 4.845,-7.681 l 0.264,-0.325 c 0.567,-0.724 1.124,-1.406 1.839,-2.203 7.609,-8.722 22.042,-19.098 47.4,-19.122 h 0.153 c 1.749,0 3.458,0.049 5.173,0.115 l 0.602,0.048 0.022,0.024 c 1.534,0.109 3.015,0.235 4.507,0.404 0.3,0.023 0.593,0.067 0.82,0.116 1.465,0.181 2.86,0.36 4.428,0.656 0.271,0.042 0.57,0.09 0.804,0.162 1.415,0.267 2.876,0.568 4.158,0.881 0.261,0.073 0.521,0.113 0.712,0.205 16.832,4.262 31.709,13.927 44.176,28.71 6.303,7.463 12.022,16.259 17.068,26.369 h 0.023 c 1.993,3.973 3.896,8.213 5.677,12.601 l 0.105,0.205 c 1.872,4.679 3.497,9.151 4.984,13.759 0.816,2.435 1.567,4.932 2.305,7.432 4.61,-1.319 9.165,-2.669 13.638,-3.971 5.133,-1.543 10.203,-3.029 15.284,-4.456 l 0.788,-0.199 c 1.728,-0.506 3.425,-0.99 5.391,-1.503 l 0.817,-0.185 c 1.884,-0.531 3.765,-0.997 5.677,-1.471 l 0.376,-0.091 c 13.514,-3.318 25.083,-5.202 36.52,-5.866 1.414,-0.084 2.852,-0.169 4.319,-0.224 3.345,-0.125 7.133,-0.125 10.698,0.08 l 1.775,0.084 c 1.41,0.089 2.808,0.205 4.227,0.373 l 0.449,0.043 c 0.767,0.09 1.517,0.174 2.266,0.261 h 0.031 l 0.287,0.047 c 17.09,2.296 31.073,8.722 42.775,19.642 5.713,5.272 10.926,11.699 15.955,19.545 l 0.909,1.423 -15.763,8.626 z" /></g><g
           transform="translate(404.792,593.7627)"
           id="g36"><path
             id="path38"
             style="fill:#ffffff;fill-opacity:1;fill-rule:nonzero;stroke:none"
             d="m 0,0 h 0.021 c 8.712,0 14.105,8.271 14.128,15.948 0,7.263 -4.237,11.942 -10.754,11.942 -8.835,0 -14.118,-8.405 -14.138,-16.532 0,-3.464 1.1,-6.474 3.113,-8.501 C -5.755,0.989 -3.11,0 0,0" /></g><g
           transform="translate(308.3145,493.835)"
           id="g40"><path
             id="path42"
             style="fill:#ffffff;fill-opacity:1;fill-rule:nonzero;stroke:none"
             d="m 0,0 c 0,0.422 0.024,0.849 0.024,1.319 l 0.034,0.78 c 0.008,0.807 0.033,1.603 0.098,2.62 V 5.27 L 0.26,6.776 C 0.555,11.604 1.101,16.85 1.872,22.464 5.475,3.353 16.761,-8.766 33.458,-10.992 33.437,-11.064 33.412,-11.108 33.385,-11.173 28.378,-23.05 21.2,-30.14 14.171,-30.14 c -0.545,0 -1.067,0.024 -1.522,0.089 l -0.362,0.044 c -0.479,0.072 -0.953,0.15 -1.29,0.266 l -0.335,0.088 c -0.364,0.104 -0.693,0.261 -1.021,0.382 l -0.335,0.131 c -0.383,0.182 -0.757,0.387 -1.118,0.64 l -0.272,0.133 c -0.286,0.229 -0.561,0.446 -0.82,0.68 l -0.244,0.205 c -0.334,0.296 -0.655,0.623 -1.028,1.045 -0.283,0.305 -0.543,0.638 -0.765,0.927 l -0.269,0.458 c -0.266,0.386 -0.546,0.76 -0.877,1.388 -0.199,0.401 -0.404,0.788 -0.579,1.222 l -0.198,0.421 c -0.206,0.502 -0.405,0.985 -0.66,1.672 l -0.104,0.314 c -0.142,0.397 -0.256,0.796 -0.352,1.133 -0.079,0.229 -0.148,0.482 -0.202,0.664 -0.127,0.523 -0.293,1.108 -0.411,1.632 -0.045,0.229 -0.081,0.434 -0.183,0.82 -0.054,0.361 -0.123,0.706 -0.245,1.339 -0.02,0.139 -0.065,0.296 -0.083,0.477 -0.125,0.615 -0.206,1.205 -0.272,1.837 L 0.283,-9.152 C 0.25,-8.701 0.218,-8.243 0.192,-7.813 L 0.169,-7.451 C 0.156,-7.187 0.124,-6.88 0.103,-6.313 0.091,-5.952 0.066,-5.578 0.058,-5.155 L 0.024,-4.063 C 0.024,-3.625 0,-3.159 0,-2.696 c -0.023,0.561 -0.023,1.129 -0.023,1.671 0,0.342 0,0.664 0.023,1.025 m 12.513,43.401 c 0.136,1.338 0.346,2.677 0.534,3.793 l 0.081,0.415 c 0.266,1.279 0.534,2.58 0.747,3.569 l 0.143,0.482 c 0.277,1.178 0.612,2.395 0.949,3.553 l 0.141,0.318 c 1.152,3.847 2.699,7.415 4.468,10.599 l 0.136,0.228 c 0.558,0.96 1.148,1.889 1.793,2.866 0.648,0.897 1.348,1.797 2.047,2.633 4.157,4.896 8.823,7.404 13.818,7.404 h 0.058 c 2.405,0 4.365,-1.066 6.047,-3.189 6.387,-8.122 6.607,-31.012 0.615,-55.84 L 43.969,19.731 C 43.544,18.02 43.083,16.307 42.627,14.606 L 42.446,13.979 C 41.991,12.323 41.494,10.676 40.948,9.012 L 40.879,8.741 C 40.394,7.223 39.869,5.696 39.351,4.249 L 38.995,3.135 C 38.54,1.953 38.108,0.729 37.65,-0.43 c -0.337,0 -0.671,0.044 -1.027,0.044 l -0.456,0.025 c -0.545,0.064 -1.055,0.125 -1.549,0.192 l -0.461,0.077 C 33.611,-0.024 33.078,0.089 32.312,0.27 31.733,0.41 31.154,0.571 30.563,0.747 14.081,6.041 10.539,27.05 12.513,43.401 m 122.29,-15.47 c 0.6,1.345 1.224,2.616 1.806,3.889 l 0.477,0.97 c 0.636,1.423 1.316,2.749 1.986,4.136 5.985,12.311 11.386,21.807 16.041,28.234 0.614,0.825 1.181,1.609 1.886,2.485 0.555,0.692 1.112,1.367 1.603,1.909 l 0.275,0.285 c 0.482,0.566 0.995,1.09 1.293,1.416 0.128,0.091 0.267,0.217 0.432,0.422 0.46,0.409 0.865,0.783 1.295,1.181 l 0.413,0.285 c 0.372,0.306 0.756,0.579 1.08,0.8 l 0.681,0.41 c 0.224,0.14 0.462,0.278 0.757,0.422 0.114,0.061 0.249,0.104 0.66,0.217 l 0.518,0.181 c 0.371,0.116 0.706,0.157 1.044,0.157 0.742,-0.065 2.303,-0.362 2.303,-4.141 0,-0.603 -0.084,-1.26 -0.166,-2.158 -0.099,-0.694 -0.248,-1.419 -0.39,-2.214 l -0.12,-0.301 c -0.171,-0.772 -0.386,-1.585 -0.656,-2.472 l -0.103,-0.386 c -0.269,-0.837 -0.558,-1.736 -0.963,-2.79 -1.467,-3.999 -3.626,-8.556 -6.227,-13.114 -5.302,-9.441 -11.741,-17.798 -17.634,-23.036 -0.829,-0.747 -1.647,-1.393 -2.489,-2.008 l -0.306,-0.246 c -0.238,-0.193 -0.506,-0.369 -0.887,-0.64 -0.162,-0.091 -0.316,-0.192 -0.451,-0.296 -1.728,0.864 -3.5,1.205 -5.158,1.322 z m 10.254,63.123 c 0.216,1.108 0.409,2.201 0.631,3.299 l 1.884,9.983 c 0.2,1.042 0.402,2.067 0.607,3.08 l 0.229,1.17 c 0.169,0.952 0.386,1.856 0.555,2.784 l 0.217,1.177 0.072,0.223 c 0.869,4.263 1.749,8.375 2.596,12.251 4.268,19.311 8.032,31.622 11.599,37.844 l 1.06,1.609 0.231,0.296 0.261,0.27 c 0.164,0.217 0.329,0.41 0.351,0.458 0.114,0.067 0.228,0.157 0.449,0.374 l 0.367,0.241 c 0.115,0.068 0.306,0.133 0.146,0.109 l 0.378,0.103 c 0.058,0.036 0.136,0.061 0.193,0.061 1.043,0 1.138,-3.324 1.17,-4.602 -0.044,-0.747 -0.127,-1.531 -0.217,-2.363 l -0.091,-0.808 c -0.065,-0.53 -0.154,-1.109 -0.27,-1.813 -0.037,-0.248 -0.071,-0.514 -0.115,-0.816 -0.114,-0.614 -0.239,-1.265 -0.381,-1.977 l -0.132,-0.772 c -0.181,-0.945 -0.375,-1.885 -0.632,-2.874 -2.119,-9.497 -6.008,-21.632 -11.881,-37.097 -1.826,-4.763 -3.644,-9.406 -5.54,-14.132 l -1.125,-2.766 c -0.12,-0.241 -0.211,-0.459 -0.283,-0.659 l -1.293,-3.134 c -0.304,-0.772 -0.627,-1.544 -0.928,-2.272 -0.131,-0.273 -0.211,-0.526 -0.266,-0.719 l -0.16,-0.397 c 0.078,0.638 0.205,1.229 0.318,1.869 M 205.23,0.988 v 0.898 c 0.179,6.052 0.803,12.921 1.869,20.506 3.447,-18.076 13.882,-30.181 29.213,-33.143 0.759,-0.149 1.558,-0.266 2.373,-0.405 -0.398,-0.88 -0.779,-1.789 -1.182,-2.664 -5.006,-10.472 -11.626,-16.464 -18.135,-16.464 -0.27,0 -0.542,0.029 -0.947,0.065 -6.218,0.441 -10.158,5.18 -12.009,14.476 l -0.046,0.186 c -0.158,0.79 -0.312,1.587 -0.403,2.202 l -0.046,0.337 c -0.487,3.432 -0.74,7.271 -0.74,11.86 0,0.728 0.019,1.428 0.053,2.146 m 12.093,37.964 c 0.137,2.611 0.438,5.208 0.829,7.596 l 0.149,0.518 c 0.205,1.286 0.464,2.557 0.829,4.064 0.263,1.182 0.557,2.351 0.931,3.504 l 0.122,0.374 c 0.333,1.09 0.674,2.223 1.036,3.2 0.095,0.23 0.19,0.41 0.166,0.458 0.401,1.068 0.846,2.122 1.278,3.111 l 0.156,0.337 c 0.468,1.045 0.99,2.058 1.591,3.203 0.58,1.025 1.132,2.001 1.75,2.93 3.236,4.973 8.714,10.857 16.405,10.857 h 0.008 c 2.177,0 3.979,-0.82 5.582,-2.556 0.183,-0.217 0.347,-0.41 0.58,-0.717 0.069,-0.091 0.136,-0.181 0.193,-0.26 l 0.431,-0.603 c 0.069,-0.132 0.161,-0.294 0.347,-0.567 0.534,-0.904 0.97,-1.905 1.345,-2.929 l 0.841,-2.508 c 0.068,-0.307 0.178,-0.651 0.244,-0.965 3.096,-12.468 1.302,-33.827 -4.571,-54.417 -0.714,-2.545 -1.487,-5.089 -2.383,-7.77 -0.745,-2.134 -1.511,-4.276 -2.328,-6.403 -0.57,0.048 -1.162,0.089 -1.786,0.161 l -0.351,0.044 c -0.863,0.041 -1.697,0.193 -2.301,0.294 l -0.355,0.116 c -1.68,0.33 -3.317,0.885 -4.844,1.573 -12.98,6.011 -16.73,23.222 -15.894,37.355 M -14.753,-3.738 c 0.082,-0.76 0.139,-1.515 0.172,-2.19 0.021,-0.338 0.069,-0.68 0.091,-0.976 0.084,-0.704 0.141,-1.411 0.238,-2.026 0.012,-0.313 0.066,-0.644 0.127,-1.066 l 0.464,-2.884 c 0.217,-1.271 0.482,-2.545 0.751,-3.738 l 0.168,-0.772 c 0.153,-0.511 0.307,-1.006 0.476,-1.608 0.103,-0.398 0.2,-0.796 0.314,-1.062 0.105,-0.405 0.244,-0.754 0.437,-1.429 l 0.509,-1.315 c 0.142,-0.422 0.308,-0.82 0.443,-1.126 0.172,-0.429 0.359,-0.876 0.558,-1.302 0.172,-0.373 0.38,-0.748 0.546,-1.092 0.238,-0.512 0.513,-1.001 0.747,-1.428 0.139,-0.266 0.269,-0.526 0.524,-0.94 0.399,-0.652 0.806,-1.287 1.204,-1.833 0.123,-0.205 0.289,-0.422 0.612,-0.864 l 0.268,-0.318 c 0.22,-0.272 0.425,-0.591 0.675,-0.796 l 0.75,-0.888 c 0.314,-0.318 0.604,-0.631 1.004,-1.017 0.233,-0.194 0.426,-0.41 0.643,-0.591 0.352,-0.32 0.751,-0.651 1.223,-1.025 l 0.627,-0.501 c 0.567,-0.391 1.159,-0.789 1.998,-1.331 0.709,-0.386 1.391,-0.744 2.16,-1.074 0.16,-0.091 0.334,-0.145 0.689,-0.285 0.501,-0.217 1.038,-0.426 1.638,-0.607 0.283,-0.109 0.578,-0.194 0.894,-0.266 0.492,-0.156 1.038,-0.272 1.592,-0.422 0.314,-0.055 0.646,-0.144 0.914,-0.212 0.603,-0.101 1.202,-0.193 1.938,-0.265 l 0.727,-0.065 c 0.822,-0.085 1.703,-0.152 2.745,-0.152 0.83,0.024 1.677,0.067 2.488,0.164 0.693,0.053 1.42,0.181 2.282,0.318 10.041,2.021 20.137,10.197 28.345,22.942 0.102,0.132 0.216,0.289 0.283,0.438 0.745,1.146 1.431,2.339 2.146,3.565 l 0.546,0.921 c 0.648,1.133 1.272,2.317 1.875,3.5 0.735,0.233 1.504,0.499 2.245,0.794 0.772,0.295 1.553,0.632 2.446,1.042 l 0.355,0.146 c 4.446,2.153 8.567,5.305 12.235,9.375 -0.412,-4.649 -0.599,-8.93 -0.599,-12.788 -0.025,-19.264 5.453,-29.892 15.431,-29.935 8.305,0 15.365,5.518 22.247,17.262 l 0.066,0.146 c 0.521,0.855 1.034,1.784 1.613,2.849 0.226,0.405 0.449,0.827 0.668,1.298 l -0.032,-0.345 c -0.103,-0.807 -0.209,-1.592 -0.302,-2.417 l -0.162,-1.49 c -0.105,-1.428 -0.226,-2.79 -0.303,-4.111 l -1.271,-11.834 h 16.983 l 7.084,48.292 c 0.887,-0.125 1.773,-0.025 2.693,0.084 0.146,0.024 0.283,0.024 0.403,0.049 1.505,-3.859 2.617,-9.358 3.799,-15.158 3.143,-15.433 7.029,-34.625 21.188,-34.649 0.438,0 0.919,0.024 1.296,0.067 0.137,0 0.276,0.049 0.633,0.114 0.314,0.024 0.648,0.068 0.796,0.127 0.204,0.037 0.419,0.09 0.5,0.102 0.365,0.092 0.7,0.2 1.079,0.32 0.137,0.018 0.278,0.085 0.455,0.169 0.357,0.133 0.69,0.258 0.839,0.35 l 0.386,0.133 c 8.177,3.761 16.301,15.005 25.62,35.317 0.865,-13.577 4.484,-23.898 10.663,-30.132 4.688,-4.751 10.856,-7.158 18.214,-7.158 h 0.022 c 9.2,0 18.597,5.385 27.164,15.49 l 0.636,0.741 c 0.432,0.481 0.873,1.031 1.286,1.549 l 1.822,2.453 c 0.542,0.755 1.047,1.539 1.593,2.323 l 0.767,1.181 c 0.245,0.399 0.506,0.789 0.755,1.175 l 0.306,0.55 c 0.211,0.337 0.434,0.723 0.674,1.108 0.382,0.64 0.744,1.272 1.109,1.93 l 0.523,0.945 c 0.419,0.803 0.845,1.612 1.26,2.419 8.932,2.713 16.567,8.93 22.713,18.401 l 0.227,0.397 c 0.611,0.989 1.248,2.05 1.944,3.256 0.564,1.068 1.11,2.122 1.81,3.521 l 0.345,0.659 c 0.431,0.909 0.844,1.849 1.27,2.797 l 0.499,1.053 c 0.514,1.262 1.044,2.557 1.556,3.939 0.297,0.776 0.16,1.592 -0.352,2.327 -1.248,1.772 -4.767,2.501 -6.029,2.501 h -1.067 l -0.371,-1.037 c -0.426,-1.042 -0.855,-2.111 -1.279,-3.087 l -0.224,-0.507 c -0.354,-0.819 -0.715,-1.651 -1.204,-2.693 -0.373,-0.796 -0.727,-1.515 -1.08,-2.19 l -0.224,-0.422 c -0.432,-0.82 -0.852,-1.657 -1.313,-2.441 -3.565,-6.281 -7.478,-10.642 -12.366,-13.825 6.564,18.605 9.148,39.707 6.784,56.076 -0.311,2.127 -0.736,4.273 -1.272,6.492 -0.522,2.014 -1.125,3.931 -1.77,5.675 l -0.07,0.192 c -0.698,1.789 -1.497,3.514 -2.448,5.222 -0.889,1.567 -1.902,3.067 -3.092,4.485 -1.085,1.283 -2.267,2.441 -3.545,3.453 l -0.35,0.26 c -1.161,0.862 -2.447,1.646 -3.93,2.328 l -0.379,0.193 c -1.493,0.615 -3.072,1.09 -4.878,1.391 l -0.297,0.073 c -1.345,0.216 -2.514,0.308 -3.746,0.333 -9.743,0 -18.43,-4.474 -25.294,-13.103 -0.603,-0.776 -1.216,-1.615 -1.794,-2.435 l -0.178,-0.314 c -0.589,-0.82 -1.112,-1.692 -1.584,-2.501 l -0.222,-0.345 c -0.499,-0.928 -1.015,-1.833 -1.581,-2.97 -2.386,-4.771 -4.23,-10.077 -5.457,-15.827 l -8.324,2.128 -0.403,-1.477 c -2.641,-9.193 -4.691,-18.413 -6.096,-27.364 L 192,23.867 c -0.088,-0.591 -0.175,-1.222 -0.271,-1.813 -0.785,-1.978 -1.613,-3.883 -2.454,-5.861 l -0.148,-0.349 c -0.799,-1.925 -1.634,-3.75 -2.45,-5.602 -1.703,-3.75 -3.407,-7.295 -5.123,-10.628 -6.494,-12.687 -12.536,-21.144 -16.983,-23.821 -0.162,-0.108 -0.342,-0.213 -0.521,-0.314 l -0.211,-0.104 c -0.149,-0.041 -0.263,-0.113 -0.392,-0.181 l -0.449,-0.132 c -0.096,-0.048 -0.208,-0.073 -0.41,-0.078 -0.157,-0.036 -0.298,-0.036 -0.452,-0.036 -3.054,0 -5.218,8.88 -7.154,16.737 -1.85,7.568 -3.913,16.037 -7.5,22.005 0.311,0.176 0.6,0.37 0.926,0.55 8.278,5.093 16.755,14.101 23.812,25.346 l 0.165,0.258 v 0.011 c 0.58,0.893 1.079,1.761 1.585,2.569 l 0.164,0.297 c 1.078,1.838 2.083,3.714 2.99,5.486 l 0.15,0.282 c 0.452,0.888 0.893,1.773 1.385,2.858 0.788,1.652 1.532,3.456 2.432,5.679 2.564,6.632 3.936,12.788 3.936,17.689 0,4.48 -1.055,8.043 -3.12,10.647 -2.329,2.846 -5.736,4.281 -10.171,4.281 -1.805,0 -3.649,-0.319 -5.431,-0.977 -0.695,-0.254 -1.41,-0.543 -1.991,-0.861 l -0.384,-0.164 c -0.669,-0.373 -1.342,-0.747 -2.056,-1.206 l -0.176,-0.132 c -0.636,-0.434 -1.261,-0.849 -1.86,-1.339 l -0.211,-0.181 c -0.626,-0.47 -1.226,-1.024 -1.806,-1.531 l -0.267,-0.253 c -0.555,-0.548 -1.169,-1.145 -1.805,-1.833 l -0.167,-0.157 c -0.633,-0.655 -1.224,-1.374 -2.007,-2.291 -0.603,-0.728 -1.227,-1.488 -1.727,-2.183 -0.103,-0.132 -0.2,-0.269 -0.317,-0.433 -0.462,-0.596 -0.911,-1.21 -1.362,-1.857 l -0.468,-0.687 c -3.445,-4.968 -6.978,-11.25 -10.674,-18.936 l 0.41,1.898 c 13.625,28.782 27.684,58.504 35.197,80.678 1.356,4.023 2.49,7.79 3.354,11.13 l 0.116,0.458 c 0.27,0.996 0.489,1.948 0.729,3.087 l 0.087,0.314 c 0.527,2.375 0.862,4.292 1.073,5.987 l 0.109,0.692 c 0.089,0.707 0.148,1.387 0.192,2.087 l 0.055,0.663 c 0.07,0.863 0.101,1.676 0.101,2.459 0,9.466 -4.711,14.675 -13.304,14.675 -0.398,0 -0.769,-0.024 -1.421,-0.049 h -0.307 c -0.255,-0.053 -0.5,-0.077 -0.523,-0.077 l -0.535,-0.091 c -0.31,0 -0.624,-0.073 -0.714,-0.113 l -0.407,-0.044 c -0.359,-0.072 -0.718,-0.156 -1.057,-0.241 l -0.45,-0.12 c -0.29,-0.097 -0.58,-0.162 -0.857,-0.266 l -0.273,-0.065 c -3.883,-1.322 -9.131,-4.445 -12.286,-11.745 -2.527,-5.01 -5.112,-11.932 -7.676,-20.63 l -1.079,-3.625 -0.079,-0.373 c -0.325,-1.11 -0.635,-2.219 -0.905,-3.268 l -2.082,-8.043 -0.127,-0.475 -1.995,-8.38 c -3.346,-14.742 -6.805,-32.412 -10.499,-53.87 -0.046,-0.144 -0.07,-0.277 -0.089,-0.53 -1.576,-9.036 -3.073,-18.188 -4.506,-27.183 l -1.509,-9.526 c -0.296,-1.864 -0.591,-3.714 -0.874,-5.542 l -0.432,-2.67 C 112.262,10.937 108.521,2.175 105.072,-4.939 l -0.599,-1.218 c -0.389,-0.795 -0.796,-1.604 -1.234,-2.472 -0.56,-1.113 -1.117,-2.158 -1.794,-3.34 -0.527,-1.001 -1.085,-1.917 -1.56,-2.773 l -0.212,-0.284 c -0.483,-0.849 -1.003,-1.633 -1.492,-2.369 l -0.204,-0.32 c -0.477,-0.681 -0.932,-1.363 -1.409,-1.977 l -0.274,-0.368 c -0.419,-0.543 -0.844,-1.109 -1.312,-1.627 l -0.265,-0.29 c -0.415,-0.441 -0.783,-0.875 -1.148,-1.217 -0.124,-0.069 -0.215,-0.145 -0.355,-0.29 -0.36,-0.321 -0.718,-0.639 -1.098,-0.916 -1.278,-0.972 -2.469,-1.447 -3.554,-1.447 -2.077,0 -3.337,3.61 -3.328,9.615 0,3.045 0.19,6.646 0.557,11.051 0.456,5.27 1.17,11.04 2.122,17.147 0.036,0.169 0.061,0.333 0.061,0.386 0.259,1.514 0.492,3.027 0.714,4.546 l 0.067,0.362 c 0.81,4.871 1.703,9.947 2.716,15.265 2.61,13.914 5.797,29.115 9.164,45.168 l 2.178,10.382 H 85.168 L 84.899,86.821 C 83.896,81.872 82.75,76.487 81.486,70.792 78.216,55.64 74.505,38.445 71.922,22.234 L 71.563,21.463 C 67.428,12.901 62.83,7.155 56.925,3.333 c 6.047,17.086 8.742,36.253 7.262,51.933 -0.024,0.193 -0.045,0.398 -0.084,0.562 -0.082,1.041 -0.206,2.062 -0.341,3.074 l -0.097,0.603 c -0.153,0.953 -0.313,1.93 -0.458,2.839 l -0.144,0.638 c -0.175,0.929 -0.392,1.858 -0.603,2.721 l -0.139,0.571 c -0.262,0.953 -0.507,1.858 -0.797,2.793 l -0.126,0.337 c -0.271,0.934 -0.635,1.863 -1.043,2.955 -4.479,11.17 -12.22,17.103 -22.406,17.103 -10.65,0 -19.928,-5.238 -26.861,-15.161 C 10.526,73.449 9.969,72.581 9.402,71.7 L 9.203,71.346 C 8.703,70.519 8.266,69.699 7.813,68.867 L 7.289,67.874 C 6.801,66.901 6.352,65.932 5.927,64.931 L 5.824,64.635 C 4.133,60.663 2.773,56.411 1.827,51.962 L -6.486,54.12 -6.915,52.669 C -9.2,44.687 -11.039,36.77 -12.38,29.16 c -1.019,-5.835 -1.745,-11.49 -2.132,-16.76 -0.011,-0.169 -0.069,-0.41 -0.011,-0.458 -0.091,-1.005 -0.148,-2.006 -0.23,-2.971 l -0.02,-0.422 c -0.2,-4.107 -0.2,-8.062 0.02,-11.684 z" /></g><g
           transform="translate(242.3818,403.0322)"
           id="g44"><path
             id="path46"
             style="fill:#ffffff;fill-opacity:1;fill-rule:nonzero;stroke:none"
             d="m 0,0 -0.181,-0.658 c -0.762,-2.091 -1.495,-4.154 -2.26,-6.095 -0.136,-0.313 -0.263,-0.591 -0.359,-0.923 -0.787,-1.954 -1.583,-3.919 -2.514,-5.973 l -0.193,-0.454 c -0.901,-1.977 -1.794,-3.887 -2.717,-5.732 -4.958,-9.852 -10.707,-17.978 -17.133,-24.225 -0.567,-0.538 -1.119,-1.079 -1.718,-1.59 l -0.29,-0.278 c -0.594,-0.495 -1.149,-1.001 -1.751,-1.496 l -0.266,-0.205 c -3.21,-2.629 -6.593,-4.835 -10.191,-6.65 l -0.218,-0.114 c -0.714,-0.361 -1.435,-0.723 -2.203,-1.056 -7.187,-3.163 -15.175,-4.828 -23.913,-4.828 l -1.345,0.048 c -3.901,0.121 -7.621,0.651 -11.057,1.617 l -0.214,0.04 c -1.052,0.321 -2.047,0.634 -3.147,1.044 -1.941,0.704 -3.844,1.616 -5.86,2.798 -0.838,0.494 -1.646,0.993 -2.418,1.584 l -0.289,0.193 c -0.79,0.573 -1.549,1.157 -2.255,1.784 -7.817,6.765 -12.299,16.997 -12.299,28.095 l 0.024,0.374 c 0.021,2.25 0.214,4.528 0.669,7.042 0.2,1.103 0.467,2.214 0.76,3.383 0.603,2.236 1.42,4.509 2.472,6.8 0.482,1.079 1.027,2.122 1.664,3.292 1.277,2.159 2.701,4.226 4.229,6.114 5.36,6.451 12.434,11.286 21.026,14.397 2.794,1.001 5.848,1.838 8.97,2.465 0.239,0.031 0.42,0.056 0.568,0.103 1.555,0.27 3.174,0.542 4.832,0.748 l 0.334,0.048 c 1.727,0.157 3.475,0.314 5.269,0.398 1.24,0.041 2.508,0.077 3.781,0.077 7.985,0 16.1,-0.644 24.86,-1.953 7.596,-1.126 15.47,-2.725 24.073,-4.884 C 0.601,14.867 2.43,14.366 4.299,13.879 3.63,11.436 2.931,9.036 2.192,6.68 1.499,4.406 0.766,2.206 0,0 M -113.102,-1.748 Z M 14.696,94.268 C 14.301,93.364 13.9,92.472 13.49,91.615 L 13.201,90.964 C 9.71,83.352 5.972,76.917 2.421,72.323 c -3.319,-4.257 -6.412,-6.712 -8.452,-6.712 -4.188,0 -6.596,6.476 -6.596,17.788 0.023,6.621 0.816,14.691 2.384,23.392 0.193,1.114 0.38,2.2 0.612,3.328 l 0.159,0.74 c 1.852,9.514 4.474,19.003 7.495,27.553 4.977,13.939 10.505,23.477 15.537,26.841 0.244,0.156 0.488,0.289 0.741,0.441 l 0.428,0.209 c 0.199,0.073 0.386,0.189 0.509,0.23 0.194,0.072 0.386,0.139 0.624,0.192 0.16,0.036 0.314,0.109 0.377,0.128 0.341,0.066 0.649,0.09 0.995,0.09 3.041,0 5.453,-1.814 7.118,-5.475 1.609,-3.561 2.453,-8.669 2.432,-14.734 0,-4.068 -0.313,-8.481 -0.926,-13.16 C 24.119,120.771 20.155,106.973 14.696,94.268 M 3.15,-27.492 c 1.972,3.413 3.89,7.107 5.707,11.002 l 0.422,0.862 c 3.632,7.928 6.795,16.537 9.448,25.665 3.924,-1.109 7.767,-2.26 11.575,-3.381 4.229,-1.261 8.365,-2.455 12.511,-3.677 l 1.168,-0.322 c 1.631,-0.433 3.259,-0.86 4.86,-1.306 0.38,-0.122 0.751,-0.217 1.079,-0.286 10.9,-2.929 25.506,-6.335 41.527,-6.969 1.748,-0.073 3.497,-0.089 5.498,-0.089 2.02,0 3.973,0.065 5.803,0.133 0.175,0 0.353,0.072 0.522,0.072 11.729,0.724 21.803,3.381 30.807,8.151 1.544,0.857 3.162,1.773 4.781,2.839 l 0.7,0.453 c 2.173,1.435 4.352,3.087 6.614,5.021 l 0.295,0.309 c 2.013,1.724 4.021,3.713 6.008,5.86 l 0.129,0.193 c 3.485,3.803 6.741,8.103 9.716,12.806 l 0.913,1.41 -14.357,7.879 -0.718,-1.5 c -1.17,-2.363 -2.327,-4.523 -3.554,-6.495 -0.205,-0.33 -0.407,-0.667 -0.636,-1 l -0.22,-0.35 c -0.313,-0.523 -0.67,-0.989 -0.983,-1.488 -0.232,-0.398 -0.521,-0.747 -0.789,-1.134 l -1.472,-1.978 c -0.302,-0.361 -0.567,-0.735 -0.903,-1.132 -0.209,-0.278 -0.423,-0.55 -0.698,-0.791 -1.684,-2.007 -3.503,-3.871 -5.275,-5.451 -0.162,-0.125 -0.301,-0.258 -0.412,-0.325 -0.667,-0.548 -1.303,-1.114 -2.012,-1.616 l -0.681,-0.543 c -0.624,-0.45 -1.239,-0.909 -1.919,-1.362 C 121.911,9.494 113.932,6.745 104.87,5.744 103.635,5.631 102.39,5.516 101.117,5.437 98.407,5.294 95.489,5.317 92.662,5.395 L 91.194,5.474 C 90.256,5.499 89.295,5.575 88.36,5.631 l -1.636,0.113 c -12.833,1.093 -25.09,4.095 -34.363,6.568 -4.955,1.362 -10.013,2.801 -15.138,4.267 -3.291,0.977 -6.608,1.918 -10.059,2.906 -1.797,0.5 -3.602,1.001 -5.429,1.513 0.467,2.073 0.989,4.617 1.504,7.688 l 0.075,0.499 c 0.682,3.648 1.363,7.905 2.147,12.741 l 0.578,3.609 c 0.13,0.772 0.263,1.568 0.398,2.491 l 3.124,17.894 c 0.964,5.419 2.043,11.347 3.176,17.593 3.169,17.302 6.714,36.908 9.825,55.497 0.075,0.157 0.084,0.306 0.117,0.518 0.486,2.899 0.983,5.781 1.463,8.838 1.768,10.889 3.24,20.588 4.337,28.812 l 0.238,1.767 H 32.499 l -1.326,-8.026 c -3.566,7.833 -9.619,9.684 -14.472,9.684 -0.839,0 -1.655,-0.054 -2.351,-0.17 -0.519,-0.072 -0.984,-0.168 -1.439,-0.282 l -0.937,-0.212 c -0.742,-0.193 -1.459,-0.47 -2.173,-0.748 l -0.745,-0.265 v -0.048 c -12.101,-5.383 -23.805,-24.121 -31.438,-50.365 -4.498,-15.499 -6.99,-31.513 -6.99,-45.114 0,-4.27 0.256,-8.315 0.768,-12.06 0.136,-0.729 0.25,-1.435 0.401,-2.363 0.546,-2.93 1.278,-5.624 2.307,-8.152 0.937,-2.344 2.118,-4.377 3.514,-6.021 l 0.109,-0.26 0.289,-0.193 c 0.323,-0.355 0.648,-0.681 1.009,-1.013 l 0.45,-0.427 h 0.021 c 2.563,-2.146 5.583,-3.244 9.023,-3.244 7.098,0 13.763,4.285 19.913,12.77 2.743,3.858 5.399,8.517 8.024,14.215 L 12.059,49.28 11.974,48.798 C 11.094,43.232 9.912,37.705 8.767,32.363 8.233,29.812 7.679,27.287 7.196,24.779 c -4.079,1 -7.922,1.837 -11.624,2.605 -1.001,0.192 -2.01,0.366 -2.954,0.554 l -0.394,0.078 c -0.971,0.192 -1.934,0.373 -2.934,0.542 -1.281,0.241 -2.577,0.422 -4.039,0.674 l -2.08,0.314 c -1.58,0.249 -3.19,0.459 -4.77,0.683 l -1.265,0.144 c -1.794,0.242 -3.567,0.447 -5.448,0.615 -7.334,0.765 -14.306,1.115 -21.448,1.115 -6.227,0 -12.289,-0.536 -18.05,-1.537 l -0.359,-0.067 C -82.18,27.914 -94.315,22.131 -103.263,13.763 l -0.368,-0.338 c -0.757,-0.716 -1.437,-1.422 -2.261,-2.247 -0.648,-0.731 -1.296,-1.411 -2.049,-2.339 -0.58,-0.684 -1.158,-1.435 -1.688,-2.094 l -0.226,-0.318 c -0.504,-0.683 -1.004,-1.363 -1.442,-2.032 l -0.307,-0.423 c -0.386,-0.608 -0.772,-1.259 -1.272,-2.018 l -0.25,-0.477 c -0.419,-0.681 -0.812,-1.392 -1.236,-2.224 l -0.166,-0.285 c -0.425,-0.808 -0.778,-1.556 -1.112,-2.327 l -0.121,-0.205 c -2.918,-6.613 -4.416,-13.541 -4.416,-20.623 0,-21.018 13.535,-38.586 34.597,-44.796 l 2.909,-0.759 c 0.603,-0.145 1.193,-0.289 1.836,-0.409 l 8.205,-1.195 c 0.362,0 0.721,-0.036 1.076,-0.036 l 0.694,-0.048 c 0.385,-0.044 0.777,-0.06 1.181,-0.06 1.022,-0.073 2.032,-0.073 3.096,-0.073 0.958,0 1.923,0.024 2.833,0.073 9.288,0.313 18.136,2.217 26.287,5.659 3.192,1.351 6.309,2.942 9.381,4.831 2.899,1.771 5.772,3.778 8.494,6.04 8.456,6.922 16.001,15.989 22.542,27.119 z" /></g></g></g></g></svg>